<?xml version="1.0" encoding="UTF-8" standalone="no"?>
<svg width="28px" height="34px" viewBox="0 0 28 34" version="1.1" xmlns="http://www.w3.org/2000/svg" xmlns:xlink="http://www.w3.org/1999/xlink" xmlns:sketch="http://www.bohemiancoding.com/sketch/ns">
    <!-- Generator: Sketch 3.3.2 (12043) - http://www.bohemiancoding.com/sketch -->
    <title>noun_20838_cc</title>
    <desc>Created with Sketch.</desc>
    <defs></defs>
    <g id="Page-1" stroke="none" stroke-width="1" fill="none" fill-rule="evenodd" sketch:type="MSPage">
        <g id="尋人" sketch:type="MSArtboardGroup" transform="translate(-726.000000, -406.000000)" fill="#2EBD9B">
            <g id="noun_20838_cc" sketch:type="MSLayerGroup" transform="translate(725.740286, 406.294667)">
                <path d="M24.4038986,10.6710417 L24.4038986,10.6710417 L24.1767621,10.4341836 C24.1236653,10.3757001 24.0661437,10.3164856 24.0123094,10.2609263 L24.0078846,10.2609263 L14.3427845,0.165215826 L4.67915921,10.2609263 C4.66883482,10.272623 4.65556061,10.2843197 4.64376132,10.2945543 L4.47267149,10.4773151 L4.28830746,10.6717727 L4.28093289,10.6790831 C1.95573368,13.1902175 0.676247281,16.4418989 0.676247281,19.8339406 C0.676247281,27.305936 6.80745763,33.3809073 14.3435219,33.3809073 C21.8825361,33.3809073 28.0152213,27.305205 28.0152213,19.8339406 C28.0152213,16.4426299 26.7357349,13.1909485 24.4120106,10.6790831 L24.4038986,10.6710417 L24.4038986,10.6710417 Z M14.3449968,31.0159817 C8.1245543,31.0159817 3.06191789,25.9980992 3.06191789,19.8339406 C3.06191789,17.2073014 3.99774974,14.6771599 5.69906105,12.6624041 L6.13858491,12.1755291 C6.20126868,12.0914591 6.28976342,12.0073891 6.37899561,11.9284364 L6.37899561,11.9284364 L14.3427845,3.60477539 L22.3161603,11.9284364 C22.4009677,12.0110443 22.4872501,12.0914591 22.5521462,12.1755291 L22.9238241,12.6624041 L22.9872454,12.6624041 C24.6944563,14.6808151 25.6243885,17.2073014 25.6243885,19.8339406 C25.6295507,25.9973682 20.5654394,31.0159817 14.3449968,31.0159817 L14.3449968,31.0159817 Z" id="Shape" sketch:type="MSShapeGroup"></path>
                <path d="M7.48812965,20.6329711 L5.2307764,21.403491 C6.61350667,25.3825606 10.0131795,28.3798389 14.1008989,29.2315045 L14.5883574,26.9140967 C11.3214267,26.2356883 8.59800114,23.8290932 7.48812965,20.6329711 L7.48812965,20.6329711 Z" id="Shape" sketch:type="MSShapeGroup"></path>
            </g>
        </g>
    </g>
</svg>