<?xml version="1.0" encoding="UTF-8" standalone="no"?>
<svg width="41px" height="35px" viewBox="0 0 41 35" version="1.1" xmlns="http://www.w3.org/2000/svg" xmlns:xlink="http://www.w3.org/1999/xlink" xmlns:sketch="http://www.bohemiancoding.com/sketch/ns">
    <!-- Generator: Sketch 3.3.2 (12043) - http://www.bohemiancoding.com/sketch -->
    <title>noun_125553_cc</title>
    <desc>Created with Sketch.</desc>
    <defs></defs>
    <g id="Page-1" stroke="none" stroke-width="1" fill="none" fill-rule="evenodd" sketch:type="MSPage">
        <g id="尋人" sketch:type="MSArtboardGroup" transform="translate(-129.000000, -406.000000)" fill="#2EBD9B">
            <g id="noun_125553_cc" sketch:type="MSLayerGroup" transform="translate(129.503906, 406.294667)">
                <path d="M19.5111111,22.1603376 C19.5111111,17.1139241 23.3777778,12.9012658 28.3555556,12.3308017 C28.9333333,12.243038 29.5555556,12.1552743 30.1333333,12.1552743 C32.0888889,12.243038 33.8222222,12.7696203 35.3333333,13.6911392 C36.1333333,11.5409283 36.1333333,9.30295359 34.8444444,7.0649789 C33.4222222,4.73924051 30.7111111,3.29113924 27.6444444,3.29113924 C24.8444444,3.29113924 22.2666667,4.51983122 20.8444444,6.62616034 L19.5111111,8.46919831 L18.2666667,6.62616034 C16.8444444,4.51983122 14.2666667,3.29113924 11.4666667,3.29113924 C8.4,3.29113924 5.68888889,4.73924051 4.26666667,7.0649789 C1.15555556,12.1991561 5.2,17.2455696 10.0888889,21.9409283 C12.0888889,23.9156118 17.1555556,28.2599156 19.5555556,30.2345992 C20.1777778,29.7518987 20.9333333,29.049789 21.8222222,28.3037975 C20.3555556,26.6801688 19.5111111,24.5299578 19.5111111,22.1603376 L19.5111111,22.1603376 Z M24.1777778,30.4978903 C22.3555556,32.0337553 20.8444444,33.3063291 20.5333333,33.5696203 L19.5111111,34.4472574 L18.5777778,33.5696203 C17.0666667,32.3409283 10.3111111,26.6362869 7.86666667,24.3105485 C4.53333333,21.107173 -3.28888889,13.5156118 1.55555556,5.57299578 C3.55555556,2.23797468 7.24444444,0.263291139 11.4222222,0.263291139 C14.5333333,0.263291139 17.5111111,1.44810127 19.5555556,3.42278481 C21.6,1.36033755 24.5777778,0.263291139 27.6888889,0.263291139 C31.8666667,0.263291139 35.5111111,2.23797468 37.6,5.57299578 C39.7777778,9.21518987 39.3777778,12.8135021 37.8666667,15.8852321 C39.2444444,17.5527426 40,19.6590717 40,21.9409283 C40,25.2759494 38.2666667,28.2599156 35.6888889,30.0151899 L35.6444444,30.0590717 C33.9555556,31.3316456 31.8666667,32.0776371 29.6,32.0776371 C27.5555556,32.0776371 25.7333333,31.507173 24.1777778,30.4978903 L24.1777778,30.4978903 Z M29.7333333,29.4447257 C33.9111111,29.4447257 37.2888889,26.1097046 37.2888889,21.9848101 C37.2888889,17.9037975 33.9555556,14.5687764 29.7777778,14.5248945 L29.7333333,14.5248945 C25.6,14.5248945 22.1777778,17.8599156 22.1777778,21.9848101 C22.1777778,26.0658228 25.5111111,29.4008439 29.6444444,29.4447257 L29.7333333,29.4447257 L29.7333333,29.4447257 Z" id="Shape" sketch:type="MSShapeGroup"></path>
                <path d="M29.5111111,20.9316456 L29.5111111,20.2734177 L29.5111111,20.0540084 L29.5111111,19.4396624 C29.1111111,19.5274262 28.8444444,19.7468354 28.8444444,20.2295359 C28.8444444,20.6683544 29.1555556,20.8877637 29.5111111,20.9316456 L29.5111111,20.9316456 Z M30.8888889,23.9594937 C30.8888889,23.7839662 30.8444444,23.6523207 30.8,23.564557 C30.7111111,23.3451477 30.4888889,23.2135021 30.2222222,23.1257384 L30.2222222,24.7493671 C30.4888889,24.7493671 30.7111111,24.5738397 30.8,24.3105485 C30.8888889,24.178903 30.8888889,24.0472574 30.8888889,23.9594937 L30.8888889,23.9594937 Z M29.5111111,17.8599156 L29.5111111,17.3333333 C29.5111111,17.1139241 29.6444444,17.0261603 29.8222222,17.0261603 C30.0888889,17.0261603 30.1333333,17.1578059 30.1333333,17.3333333 L30.1333333,17.8599156 C30.8888889,17.8599156 32.2666667,18.1232068 32.2666667,19.0886076 C32.2666667,19.5274262 31.9111111,19.9223629 31.4666667,19.9223629 C31.0222222,19.9223629 30.6666667,19.4835443 30.1333333,19.4835443 L30.1333333,21.107173 C31.4666667,21.5021097 32.8444444,22.0725738 32.8444444,23.6962025 C32.8444444,25.5392405 31.3333333,26.3729958 30.1333333,26.4607595 L30.1333333,26.9873418 C30.1333333,27.1628692 30,27.2945148 29.8222222,27.2945148 C29.5555556,27.2945148 29.5111111,27.1628692 29.5111111,26.9873418 L29.5111111,26.5485232 C28.7111111,26.4607595 26.8,26.2852321 26.8,25.1881857 C26.8,24.6616034 27.2,24.2227848 27.6444444,24.2227848 C28.0444444,24.2227848 28.6222222,24.7493671 29.5111111,24.7493671 L29.5111111,22.9063291 C27.5111111,22.335865 26.8444444,21.5898734 26.8444444,20.5367089 C26.8444444,19.0008439 28.0444444,17.9915612 29.5111111,17.8599156 L29.5111111,17.8599156 Z" id="Shape" sketch:type="MSShapeGroup"></path>
                <path id="Shape" sketch:type="MSShapeGroup" d="M29.3111111,20.0978903 L29.3111111,20.3172996 L29.3111111,20.2295359 C29.1777778,20.185654 29.1777778,20.1417722 29.3111111,20.0978903 L29.3111111,20.0978903 Z"></path>
            </g>
        </g>
    </g>
</svg>